<svg width="89" height="25" viewBox="0 0 89 25" fill="none" xmlns="http://www.w3.org/2000/svg">
<path d="M6.64794 19H0.185426V0.769646H6.70135C8.53507 0.769646 10.1136 1.13461 11.437 1.86454C12.7603 2.58853 13.7781 3.63001 14.4902 4.98898C15.2083 6.34794 15.5673 7.97396 15.5673 9.86702C15.5673 11.766 15.2083 13.398 14.4902 14.7629C13.7781 16.1278 12.7544 17.1752 11.4192 17.9051C10.0899 18.635 8.49946 19 6.64794 19ZM4.03979 15.6975H6.48772C7.62711 15.6975 8.58551 15.4958 9.36291 15.0922C10.1462 14.6828 10.7338 14.0507 11.1254 13.1962C11.523 12.3357 11.7218 11.226 11.7218 9.86702C11.7218 8.51992 11.523 7.4191 11.1254 6.56455C10.7338 5.71 10.1492 5.08096 9.37182 4.67742C8.59441 4.27389 7.63602 4.07212 6.49662 4.07212H4.03979V15.6975ZM23.3895 19.2225C22.351 19.2225 21.4104 18.9555 20.5677 18.4214C19.731 17.8814 19.0663 17.0891 18.5738 16.0447C18.0872 14.9943 17.8439 13.7066 17.8439 12.1814C17.8439 10.6147 18.0961 9.31216 18.6005 8.27364C19.1049 7.2292 19.7755 6.44883 20.6122 5.93254C21.4549 5.41032 22.3777 5.1492 23.3806 5.1492C24.1461 5.1492 24.7841 5.27976 25.2944 5.54087C25.8107 5.79605 26.2261 6.1165 26.5407 6.50224C26.8611 6.88204 27.1044 7.2559 27.2706 7.62383H27.3863V0.769646H31.1695V19H27.4308V16.8102H27.2706C27.0926 17.19 26.8403 17.5669 26.514 17.9407C26.1935 18.3086 25.7751 18.6143 25.2588 18.8576C24.7485 19.1009 24.1254 19.2225 23.3895 19.2225ZM24.5912 16.2049C25.2025 16.2049 25.7188 16.0388 26.1401 15.7064C26.5674 15.3682 26.8938 14.8964 27.1193 14.2911C27.3507 13.6858 27.4664 12.9766 27.4664 12.1636C27.4664 11.3506 27.3537 10.6444 27.1282 10.0451C26.9027 9.44568 26.5763 8.9828 26.149 8.65641C25.7217 8.33002 25.2025 8.16683 24.5912 8.16683C23.9681 8.16683 23.4429 8.33595 23.0157 8.67421C22.5884 9.01247 22.265 9.48129 22.0454 10.0807C21.8258 10.68 21.716 11.3743 21.716 12.1636C21.716 12.9588 21.8258 13.662 22.0454 14.2733C22.2709 14.8786 22.5943 15.3533 23.0157 15.6975C23.4429 16.0358 23.9681 16.2049 24.5912 16.2049ZM45.6634 9.22611L42.1918 9.43975C42.1324 9.14303 42.0049 8.87598 41.809 8.63861C41.6132 8.3953 41.355 8.20243 41.0346 8.06001C40.7201 7.91165 40.3432 7.83747 39.9041 7.83747C39.3166 7.83747 38.8211 7.96209 38.4175 8.21133C38.014 8.45464 37.8122 8.78103 37.8122 9.1905C37.8122 9.51689 37.9428 9.79284 38.2039 10.0183C38.465 10.2439 38.9131 10.4248 39.548 10.5613L42.0227 11.0598C43.352 11.3328 44.343 11.7719 44.9958 12.3773C45.6486 12.9826 45.9749 13.7778 45.9749 14.7629C45.9749 15.659 45.7109 16.4453 45.1827 17.1218C44.6605 17.7983 43.9424 18.3265 43.0285 18.7062C42.1206 19.0801 41.0732 19.267 39.8863 19.267C38.0763 19.267 36.6343 18.8902 35.5601 18.1366C34.492 17.377 33.8659 16.3444 33.6819 15.0388L37.4117 14.843C37.5244 15.3949 37.7974 15.8162 38.2306 16.107C38.6638 16.3918 39.2187 16.5343 39.8952 16.5343C40.5598 16.5343 41.0939 16.4067 41.4975 16.1515C41.9069 15.8904 42.1146 15.5551 42.1206 15.1456C42.1146 14.8014 41.9693 14.5196 41.6844 14.3C41.3996 14.0745 40.9604 13.9024 40.367 13.7837L37.9992 13.3119C36.6639 13.0449 35.6699 12.582 35.0172 11.9233C34.3703 11.2646 34.0469 10.4248 34.0469 9.40414C34.0469 8.52585 34.2843 7.76922 34.759 7.13425C35.2397 6.49927 35.9132 6.00969 36.7797 5.66549C37.652 5.3213 38.6727 5.1492 39.8418 5.1492C41.5687 5.1492 42.9277 5.51417 43.9187 6.24409C44.9157 6.97402 45.4972 7.96802 45.6634 9.22611ZM54.5227 24.4121C53.2942 24.4121 52.2409 24.243 51.3626 23.9047C50.4903 23.5724 49.7959 23.1184 49.2796 22.5428C48.7634 21.9672 48.4281 21.3203 48.2738 20.6023L51.781 20.1305C51.8878 20.4035 52.0569 20.6587 52.2884 20.896C52.5198 21.1334 52.8254 21.3233 53.2052 21.4657C53.591 21.6141 54.0598 21.6883 54.6117 21.6883C55.4365 21.6883 56.116 21.4865 56.6501 21.083C57.1901 20.6854 57.4602 20.0177 57.4602 19.0801V16.5788H57.2999C57.1338 16.9586 56.8845 17.3176 56.5522 17.6559C56.2199 17.9941 55.7926 18.2701 55.2704 18.4837C54.7482 18.6973 54.1251 18.8042 53.4011 18.8042C52.3744 18.8042 51.4398 18.5668 50.5971 18.092C49.7603 17.6114 49.0927 16.8785 48.5942 15.8934C48.1017 14.9023 47.8554 13.6502 47.8554 12.1369C47.8554 10.588 48.1076 9.29435 48.612 8.25584C49.1165 7.21733 49.787 6.43993 50.6238 5.92364C51.4665 5.40735 52.3893 5.1492 53.3922 5.1492C54.1577 5.1492 54.7986 5.27976 55.3149 5.54087C55.8312 5.79605 56.2466 6.1165 56.5611 6.50224C56.8816 6.88204 57.1278 7.2559 57.2999 7.62383H57.4424V5.32723H61.2077V19.1335C61.2077 20.2967 60.9229 21.2699 60.3532 22.0532C59.7835 22.8366 58.9942 23.4241 57.9854 23.8157C56.9824 24.2133 55.8282 24.4121 54.5227 24.4121ZM54.6028 15.9557C55.214 15.9557 55.7303 15.8043 56.1516 15.5017C56.5789 15.1931 56.9053 14.754 57.1308 14.1843C57.3622 13.6086 57.478 12.9202 57.478 12.1191C57.478 11.318 57.3652 10.6237 57.1397 10.0361C56.9142 9.44271 56.5878 8.9828 56.1605 8.65641C55.7333 8.33002 55.214 8.16683 54.6028 8.16683C53.9797 8.16683 53.4545 8.33595 53.0272 8.67421C52.5999 9.00654 52.2765 9.46942 52.0569 10.0629C51.8374 10.6563 51.7276 11.3417 51.7276 12.1191C51.7276 12.9084 51.8374 13.5908 52.0569 14.1665C52.2824 14.7362 52.6059 15.1783 53.0272 15.4928C53.4545 15.8014 53.9797 15.9557 54.6028 15.9557ZM68.0174 11.0954V19H64.2253V5.32723H67.8394V7.73955H67.9996C68.3022 6.94435 68.8096 6.31531 69.5217 5.85242C70.2339 5.38361 71.0973 5.1492 72.1121 5.1492C73.0616 5.1492 73.8894 5.35691 74.5956 5.77231C75.3018 6.18772 75.8507 6.78115 76.2424 7.55262C76.6341 8.31815 76.8299 9.23204 76.8299 10.2943V19H73.0379V10.9708C73.0438 10.1341 72.8302 9.48129 72.3969 9.01247C71.9637 8.53772 71.3673 8.30035 70.6077 8.30035C70.0974 8.30035 69.6464 8.41013 69.2547 8.62971C68.869 8.84928 68.5663 9.16973 68.3467 9.59107C68.1331 10.0065 68.0233 10.5079 68.0174 11.0954ZM79.8186 19V5.32723H83.4949V7.71285H83.6374C83.8866 6.86423 84.305 6.22332 84.8925 5.79012C85.48 5.35097 86.1565 5.1314 86.922 5.1314C87.1119 5.1314 87.3167 5.14327 87.5362 5.16701C87.7558 5.19074 87.9487 5.22338 88.1148 5.26492V8.62971C87.9368 8.5763 87.6905 8.52882 87.376 8.48728C87.0615 8.44574 86.7737 8.42497 86.5126 8.42497C85.9547 8.42497 85.4562 8.54663 85.0171 8.78993C84.5839 9.02731 84.2397 9.35963 83.9845 9.78691C83.7353 10.2142 83.6107 10.7067 83.6107 11.2646V19H79.8186Z" fill="black"/>
</svg>
