<svg width="101" height="100" viewBox="0 0 101 100" fill="none" xmlns="http://www.w3.org/2000/svg">
<rect x="0.666626" width="100" height="100" rx="5" fill="white"/>
<path d="M64 56.32V40.2267C64 38.6267 62.6933 37.44 61.1066 37.5734H61.0266C58.2266 37.8134 53.9733 39.24 51.6 40.7334L51.3733 40.88C50.9866 41.12 50.3466 41.12 49.96 40.88L49.6266 40.68C47.2533 39.2 43.0133 37.7867 40.2133 37.56C38.6266 37.4267 37.3333 38.6267 37.3333 40.2134V56.32C37.3333 57.6 38.3733 58.8 39.6533 58.96L40.04 59.0134C42.9333 59.4 47.4 60.8667 49.96 62.2667L50.0133 62.2934C50.3733 62.4934 50.9466 62.4934 51.2933 62.2934C53.8533 60.88 58.3333 59.4 61.24 59.0134L61.68 58.96C62.96 58.8 64 57.6 64 56.32Z" stroke="#292D32" stroke-width="1.5" stroke-linecap="round" stroke-linejoin="round"/>
<path d="M50.6666 41.3199V61.3199" stroke="#292D32" stroke-width="1.5" stroke-linecap="round" stroke-linejoin="round"/>
<path d="M44.9999 45.3199H41.9999" stroke="#292D32" stroke-width="1.5" stroke-linecap="round" stroke-linejoin="round"/>
<path d="M45.9999 49.3199H41.9999" stroke="#292D32" stroke-width="1.5" stroke-linecap="round" stroke-linejoin="round"/>
</svg>
