<svg width="131" height="32" viewBox="0 0 131 32" fill="none" xmlns="http://www.w3.org/2000/svg">
<path d="M15.7929 4.59521V4.59626C15.776 4.62534 12.2955 10.6292 7.95067 17.9595C3.59532 25.3077 0 31.1906 0 31.1906L12.3315 31.1365L12.3323 31.1364L12.3297 31.1459C18.3172 31.03 23.7182 27.0934 25.3119 21.1453C25.8102 19.286 25.8853 17.4143 25.5964 15.6255C24.8043 10.3582 20.9149 6.07448 15.7929 4.59521Z" fill="black"/>
<path d="M22.6077 0.809326V0.81037C22.5908 0.839449 19.1102 6.8433 14.7654 14.1736C10.4101 21.5218 6.81476 27.4047 6.81476 27.4047L19.1462 27.3506L19.147 27.3505L19.1445 27.36C25.132 27.2441 30.5329 23.3075 32.1267 17.3594C32.6249 15.5001 32.7001 13.6284 32.4111 11.8396C31.619 6.57236 27.7297 2.28859 22.6077 0.809326Z" fill="#10F2C5"/>
<path d="M48.6479 25H42.1854V6.76965H48.7014C50.5351 6.76965 52.1136 7.13461 53.437 7.86454C54.7603 8.58853 55.7781 9.63001 56.4902 10.989C57.2083 12.3479 57.5673 13.974 57.5673 15.867C57.5673 17.766 57.2083 19.398 56.4902 20.7629C55.7781 22.1278 54.7544 23.1752 53.4192 23.9051C52.0899 24.635 50.4995 25 48.6479 25ZM46.0398 21.6975H48.4877C49.6271 21.6975 50.5855 21.4958 51.3629 21.0922C52.1462 20.6828 52.7338 20.0507 53.1254 19.1962C53.523 18.3357 53.7218 17.226 53.7218 15.867C53.7218 14.5199 53.523 13.4191 53.1254 12.5645C52.7338 11.71 52.1492 11.081 51.3718 10.6774C50.5944 10.2739 49.636 10.0721 48.4966 10.0721H46.0398V21.6975ZM65.3895 25.2225C64.351 25.2225 63.4104 24.9555 62.5677 24.4214C61.731 23.8814 61.0663 23.0891 60.5738 22.0447C60.0872 20.9943 59.8439 19.7066 59.8439 18.1814C59.8439 16.6147 60.0961 15.3122 60.6005 14.2736C61.1049 13.2292 61.7755 12.4488 62.6122 11.9325C63.4549 11.4103 64.3777 11.1492 65.3806 11.1492C66.1461 11.1492 66.7841 11.2798 67.2944 11.5409C67.8107 11.796 68.2261 12.1165 68.5407 12.5022C68.8611 12.882 69.1044 13.2559 69.2706 13.6238H69.3863V6.76965H73.1695V25H69.4308V22.8102H69.2706C69.0926 23.19 68.8403 23.5669 68.514 23.9407C68.1935 24.3086 67.7751 24.6143 67.2588 24.8576C66.7485 25.1009 66.1254 25.2225 65.3895 25.2225ZM66.5912 22.2049C67.2025 22.2049 67.7188 22.0388 68.1401 21.7064C68.5674 21.3682 68.8938 20.8964 69.1193 20.2911C69.3507 19.6858 69.4664 18.9766 69.4664 18.1636C69.4664 17.3506 69.3537 16.6444 69.1282 16.0451C68.9027 15.4457 68.5763 14.9828 68.149 14.6564C67.7217 14.33 67.2025 14.1668 66.5912 14.1668C65.9681 14.1668 65.4429 14.336 65.0157 14.6742C64.5884 15.0125 64.265 15.4813 64.0454 16.0807C63.8258 16.68 63.716 17.3743 63.716 18.1636C63.716 18.9588 63.8258 19.662 64.0454 20.2733C64.2709 20.8786 64.5943 21.3533 65.0157 21.6975C65.4429 22.0358 65.9681 22.2049 66.5912 22.2049ZM87.6634 15.2261L84.1918 15.4397C84.1324 15.143 84.0049 14.876 83.809 14.6386C83.6132 14.3953 83.355 14.2024 83.0346 14.06C82.7201 13.9116 82.3432 13.8375 81.9041 13.8375C81.3166 13.8375 80.8211 13.9621 80.4175 14.2113C80.014 14.4546 79.8122 14.781 79.8122 15.1905C79.8122 15.5169 79.9428 15.7928 80.2039 16.0183C80.465 16.2439 80.9131 16.4248 81.548 16.5613L84.0227 17.0598C85.352 17.3328 86.343 17.7719 86.9958 18.3773C87.6486 18.9826 87.9749 19.7778 87.9749 20.7629C87.9749 21.659 87.7109 22.4453 87.1827 23.1218C86.6605 23.7983 85.9424 24.3265 85.0285 24.7062C84.1206 25.0801 83.0732 25.267 81.8863 25.267C80.0763 25.267 78.6343 24.8902 77.5601 24.1366C76.492 23.377 75.8659 22.3444 75.6819 21.0388L79.4117 20.843C79.5244 21.3949 79.7974 21.8162 80.2306 22.107C80.6638 22.3918 81.2187 22.5343 81.8952 22.5343C82.5598 22.5343 83.0939 22.4067 83.4975 22.1515C83.9069 21.8904 84.1146 21.5551 84.1206 21.1456C84.1146 20.8014 83.9693 20.5196 83.6844 20.3C83.3996 20.0745 82.9604 19.9024 82.367 19.7837L79.9992 19.3119C78.6639 19.0449 77.6699 18.582 77.0172 17.9233C76.3703 17.2646 76.0469 16.4248 76.0469 15.4041C76.0469 14.5259 76.2843 13.7692 76.759 13.1342C77.2397 12.4993 77.9132 12.0097 78.7797 11.6655C79.652 11.3213 80.6727 11.1492 81.8418 11.1492C83.5687 11.1492 84.9277 11.5142 85.9187 12.2441C86.9157 12.974 87.4972 13.968 87.6634 15.2261ZM96.5227 30.4121C95.2942 30.4121 94.2409 30.243 93.3626 29.9047C92.4903 29.5724 91.7959 29.1184 91.2796 28.5428C90.7634 27.9672 90.4281 27.3203 90.2738 26.6023L93.781 26.1305C93.8878 26.4035 94.0569 26.6587 94.2884 26.896C94.5198 27.1334 94.8254 27.3233 95.2052 27.4657C95.591 27.6141 96.0598 27.6883 96.6117 27.6883C97.4365 27.6883 98.116 27.4865 98.6501 27.083C99.1901 26.6854 99.4602 26.0177 99.4602 25.0801V22.5788H99.2999C99.1338 22.9586 98.8845 23.3176 98.5522 23.6559C98.2199 23.9941 97.7926 24.2701 97.2704 24.4837C96.7482 24.6973 96.1251 24.8042 95.4011 24.8042C94.3744 24.8042 93.4398 24.5668 92.5971 24.092C91.7603 23.6114 91.0927 22.8785 90.5942 21.8934C90.1017 20.9023 89.8554 19.6502 89.8554 18.1369C89.8554 16.588 90.1076 15.2944 90.612 14.2558C91.1165 13.2173 91.787 12.4399 92.6238 11.9236C93.4665 11.4073 94.3893 11.1492 95.3922 11.1492C96.1577 11.1492 96.7986 11.2798 97.3149 11.5409C97.8312 11.796 98.2466 12.1165 98.5611 12.5022C98.8816 12.882 99.1278 13.2559 99.2999 13.6238H99.4424V11.3272H103.208V25.1335C103.208 26.2967 102.923 27.2699 102.353 28.0532C101.783 28.8366 100.994 29.4241 99.9854 29.8157C98.9824 30.2133 97.8282 30.4121 96.5227 30.4121ZM96.6028 21.9557C97.214 21.9557 97.7303 21.8043 98.1516 21.5017C98.5789 21.1931 98.9053 20.754 99.1308 20.1843C99.3622 19.6086 99.478 18.9202 99.478 18.1191C99.478 17.318 99.3652 16.6237 99.1397 16.0361C98.9142 15.4427 98.5878 14.9828 98.1605 14.6564C97.7333 14.33 97.214 14.1668 96.6028 14.1668C95.9797 14.1668 95.4545 14.336 95.0272 14.6742C94.5999 15.0065 94.2765 15.4694 94.0569 16.0629C93.8374 16.6563 93.7276 17.3417 93.7276 18.1191C93.7276 18.9084 93.8374 19.5908 94.0569 20.1665C94.2824 20.7362 94.6059 21.1783 95.0272 21.4928C95.4545 21.8014 95.9797 21.9557 96.6028 21.9557ZM110.017 17.0954V25H106.225V11.3272H109.839V13.7396H110C110.302 12.9443 110.81 12.3153 111.522 11.8524C112.234 11.3836 113.097 11.1492 114.112 11.1492C115.062 11.1492 115.889 11.3569 116.596 11.7723C117.302 12.1877 117.851 12.7812 118.242 13.5526C118.634 14.3182 118.83 15.232 118.83 16.2943V25H115.038V16.9708C115.044 16.1341 114.83 15.4813 114.397 15.0125C113.964 14.5377 113.367 14.3003 112.608 14.3003C112.097 14.3003 111.646 14.4101 111.255 14.6297C110.869 14.8493 110.566 15.1697 110.347 15.5911C110.133 16.0065 110.023 16.5079 110.017 17.0954ZM121.819 25V11.3272H125.495V13.7128H125.637C125.887 12.8642 126.305 12.2233 126.892 11.7901C127.48 11.351 128.157 11.1314 128.922 11.1314C129.112 11.1314 129.317 11.1433 129.536 11.167C129.756 11.1907 129.949 11.2234 130.115 11.2649V14.6297C129.937 14.5763 129.691 14.5288 129.376 14.4873C129.061 14.4457 128.774 14.425 128.513 14.425C127.955 14.425 127.456 14.5466 127.017 14.7899C126.584 15.0273 126.24 15.3596 125.985 15.7869C125.735 16.2142 125.611 16.7067 125.611 17.2646V25H121.819Z" fill="black"/>
</svg>