<svg width="48" height="24" viewBox="0 0 48 24" fill="none" xmlns="http://www.w3.org/2000/svg">
<path d="M11.0489 2.92705C11.3483 2.00574 12.6517 2.00574 12.9511 2.92705L14.4697 7.60081C14.6035 8.01284 14.9875 8.2918 15.4207 8.2918H20.335C21.3037 8.2918 21.7065 9.53141 20.9228 10.1008L16.947 12.9894C16.5966 13.244 16.4499 13.6954 16.5838 14.1074L18.1024 18.7812C18.4017 19.7025 17.3472 20.4686 16.5635 19.8992L12.5878 17.0106C12.2373 16.756 11.7627 16.756 11.4122 17.0106L7.43648 19.8992C6.65276 20.4686 5.59828 19.7025 5.89763 18.7812L7.41623 14.1074C7.55011 13.6954 7.40345 13.244 7.05296 12.9894L3.07722 10.1008C2.29351 9.53141 2.69628 8.2918 3.66501 8.2918H8.57929C9.01252 8.2918 9.39647 8.01284 9.53035 7.60081L11.0489 2.92705Z" fill="#D9D9D9"/>
<path d="M30.5342 12.4199L29.0918 12.0713L29.6455 7.04688H35.1211V8.54395H31.1426L30.8828 10.8682C31.0241 10.7816 31.2292 10.695 31.498 10.6084C31.7715 10.5173 32.0791 10.4717 32.4209 10.4717C32.8949 10.4717 33.3187 10.5492 33.6924 10.7041C34.0661 10.8545 34.3828 11.0732 34.6426 11.3604C34.9069 11.6475 35.1051 11.9984 35.2373 12.4131C35.374 12.8232 35.4424 13.2881 35.4424 13.8076C35.4424 14.2633 35.374 14.6917 35.2373 15.0928C35.1051 15.4893 34.9023 15.8424 34.6289 16.1523C34.3555 16.4577 34.0114 16.6992 33.5967 16.877C33.182 17.0501 32.6943 17.1367 32.1338 17.1367C31.71 17.1367 31.3021 17.0752 30.9102 16.9521C30.5228 16.8245 30.1742 16.64 29.8643 16.3984C29.5544 16.1523 29.306 15.8516 29.1191 15.4961C28.9368 15.1406 28.8366 14.7327 28.8184 14.2725H30.6025C30.6344 14.5778 30.7165 14.8376 30.8486 15.0518C30.9808 15.266 31.154 15.43 31.3682 15.5439C31.5869 15.6579 31.8398 15.7148 32.127 15.7148C32.3867 15.7148 32.61 15.667 32.7969 15.5713C32.9883 15.471 33.1455 15.332 33.2686 15.1543C33.3916 14.9766 33.4827 14.7669 33.542 14.5254C33.6012 14.2839 33.6309 14.0195 33.6309 13.7324C33.6309 13.4544 33.5967 13.2015 33.5283 12.9736C33.46 12.7412 33.3551 12.5407 33.2139 12.3721C33.0726 12.2035 32.8949 12.0736 32.6807 11.9824C32.471 11.8913 32.2249 11.8457 31.9424 11.8457C31.5641 11.8457 31.2725 11.9027 31.0674 12.0166C30.8669 12.1305 30.6891 12.265 30.5342 12.4199ZM36.9121 16.1182C36.9121 15.8447 37.0055 15.6146 37.1924 15.4277C37.3792 15.2409 37.6322 15.1475 37.9512 15.1475C38.2702 15.1475 38.5231 15.2409 38.71 15.4277C38.8968 15.6146 38.9902 15.8447 38.9902 16.1182C38.9902 16.387 38.8968 16.6149 38.71 16.8018C38.5231 16.984 38.2702 17.0752 37.9512 17.0752C37.6322 17.0752 37.3792 16.984 37.1924 16.8018C37.0055 16.6149 36.9121 16.387 36.9121 16.1182ZM47.3096 11.1689V12.8438C47.3096 13.6094 47.2321 14.2633 47.0771 14.8057C46.9222 15.348 46.6989 15.7923 46.4072 16.1387C46.1156 16.4805 45.7669 16.7334 45.3613 16.8975C44.9557 17.057 44.5046 17.1367 44.0078 17.1367C43.6113 17.1367 43.2422 17.0866 42.9004 16.9863C42.5586 16.8815 42.251 16.722 41.9775 16.5078C41.7087 16.2891 41.4762 16.0111 41.2803 15.6738C41.0889 15.3366 40.9408 14.9333 40.8359 14.4639C40.7357 13.9945 40.6855 13.4544 40.6855 12.8438V11.1689C40.6855 10.4033 40.763 9.75163 40.918 9.21387C41.0775 8.67611 41.3031 8.23633 41.5947 7.89453C41.8864 7.55273 42.235 7.30436 42.6406 7.14941C43.0462 6.98991 43.4974 6.91016 43.9941 6.91016C44.3952 6.91016 44.7643 6.96029 45.1016 7.06055C45.4434 7.16081 45.7487 7.31803 46.0176 7.53223C46.291 7.74186 46.5234 8.0153 46.7148 8.35254C46.9062 8.68522 47.0521 9.08626 47.1523 9.55566C47.2572 10.0205 47.3096 10.5583 47.3096 11.1689ZM45.5049 13.0898V10.916C45.5049 10.5332 45.4821 10.2005 45.4365 9.91797C45.3955 9.63086 45.334 9.38704 45.252 9.18652C45.1699 8.986 45.0674 8.82422 44.9443 8.70117C44.8213 8.57357 44.68 8.48014 44.5205 8.4209C44.361 8.36165 44.1855 8.33203 43.9941 8.33203C43.7572 8.33203 43.5452 8.37988 43.3584 8.47559C43.1715 8.56673 43.0143 8.71257 42.8867 8.91309C42.7591 9.11361 42.6611 9.38021 42.5928 9.71289C42.529 10.041 42.4971 10.4421 42.4971 10.916V13.0898C42.4971 13.4727 42.5176 13.8076 42.5586 14.0947C42.6042 14.3818 42.668 14.6279 42.75 14.833C42.8366 15.0381 42.9391 15.2067 43.0576 15.3389C43.1807 15.4665 43.3219 15.5622 43.4814 15.626C43.641 15.6852 43.8164 15.7148 44.0078 15.7148C44.2493 15.7148 44.4613 15.667 44.6436 15.5713C44.8304 15.4756 44.9876 15.3252 45.1152 15.1201C45.2428 14.9105 45.3385 14.6393 45.4023 14.3066C45.4707 13.9694 45.5049 13.5638 45.5049 13.0898Z" fill="black"/>
</svg>
