<svg width="19" height="18" viewBox="0 0 19 18" fill="none" xmlns="http://www.w3.org/2000/svg">
<path fill-rule="evenodd" clip-rule="evenodd" d="M9.33331 0C4.36476 0 0.333313 4.03145 0.333313 9C0.333313 13.9686 4.36476 18 9.33331 18C14.2921 18 18.3333 13.9686 18.3333 9C18.3333 4.03145 14.2921 0 9.33331 0ZM15.278 4.14859C16.3517 5.45662 16.996 7.1258 17.0155 8.9317C16.7617 8.8829 14.2237 8.3655 11.6663 8.6876C11.6077 8.5607 11.5589 8.4241 11.5003 8.2874C11.3441 7.9165 11.1685 7.5358 10.9927 7.1746C13.8235 6.0228 15.112 4.36334 15.278 4.14859ZM9.33331 1.32755C11.2856 1.32755 13.0719 2.05966 14.4288 3.26031C14.2921 3.45553 13.1305 5.00759 10.3973 6.03253C9.13811 3.71909 7.74221 1.82538 7.52751 1.53254C8.10331 1.39588 8.70861 1.32755 9.33331 1.32755ZM6.06327 2.04989C6.26825 2.32321 7.63481 4.22668 8.91361 6.49131C5.32138 7.448 2.14893 7.4284 1.80728 7.4284C2.30511 5.04664 3.91574 3.06507 6.06327 2.04989ZM1.64134 9.0098C1.64134 8.9317 1.64134 8.8536 1.64134 8.7755C1.97322 8.7852 5.70207 8.8341 9.53831 7.6822C9.76281 8.1117 9.96781 8.551 10.163 8.9902C10.0654 9.0195 9.95801 9.0488 9.86041 9.0781C5.8973 10.3568 3.78884 13.8514 3.61314 14.1442C2.39296 12.7874 1.64134 10.9816 1.64134 9.0098ZM9.33331 16.692C7.55671 16.692 5.91683 16.0868 4.61856 15.0716C4.75522 14.7885 6.31702 11.782 10.6511 10.269C10.6706 10.2592 10.6804 10.2592 10.6999 10.2495C11.7834 13.051 12.2227 15.4034 12.3398 16.077C11.4125 16.4772 10.3973 16.692 9.33331 16.692ZM13.6185 15.3742C13.5405 14.9056 13.1305 12.6605 12.125 9.898C14.5361 9.5173 16.6446 10.1421 16.9082 10.23C16.5763 12.3677 15.3463 14.2126 13.6185 15.3742Z" fill="black"/>
</svg>
